{
  "source": "C:\\Users\\Peter\\Desktop\\stuff\\MIUN\\quantitative_research\\video_compression\\videos\\BVI-HD\\BVI-HD_CDVL_videos\\ORIG\\Diver_1920x1080_30fps.mp4",
  "output": "C:\\Users\\Peter\\Desktop\\stuff\\MIUN\\quantitative_research\\video_compression\\compressed_videos\\BVI-HD\\av1\\2.5\\Diver_1920x1080_30fps_av1.mkv",
  "codec": "av1",
  "ok": "Input #0, mov,mp4,m4a,3gp,3g2,mj2, from 'C:\\Users\\Peter\\Desktop\\stuff\\MIUN\\quantitative_research\\video_compression\\videos\\BVI-HD\\BVI-HD_CDVL_videos\\ORIG\\Diver_1920x1080_30fps.mp4':\n  Metadata:\n    major_brand     : isom\n    minor_version   : 512\n    compatible_brands: isomiso2avc1mp41\n    encoder         : Lavf54.28.101\n  Duration: 00:00:05.00, start: 0.000000, bitrate: 196798 kb/s\n  Stream #0:0[0x1](und): Video: h264 (High 4:4:4 Predictive) (avc1 / 0x31637661), yuv420p(progressive), 1920x1080, 196794 kb/s, 30 fps, 30 tbr, 30 tbn (default)\n    Metadata:\n      handler_name    : VideoHandler\n      vendor_id       : [0][0][0][0]\n[out#0/matroska @ 0000017597a19180] Codec AVOption b:a (set bitrate (in bits/s)) has not been used for any stream. The most likely reason is either wrong type (e.g. a video option with no video streams) or that it is a private option of some decoder which was not actually used for any stream.\nStream mapping:\n  Stream #0:0 -> #0:0 (h264 (native) -> av1 (libsvtav1))\nPress [q] to stop, [?] for help\nSvt[info]: -------------------------------------------\nSvt[info]: SVT [version]:\tSVT-AV1 Encoder Lib v3.1.0-19-g6ecfe8ec\nSvt[info]: SVT [build]  :\tGCC 15.2.0\t 64 bit\nSvt[info]: LIB Build date: Aug 17 2025 11:37:13\nSvt[info]: -------------------------------------------\nSvt[info]: Level of Parallelism: 5\nSvt[info]: Number of PPCS 93\nSvt[info]: [asm level on system : up to avx2]\nSvt[info]: [asm level selected : up to avx2]\nSvt[info]: -------------------------------------------\nSvt[info]: SVT [config]: main profile\ttier (auto)\tlevel (auto)\nSvt[info]: SVT [config]: width / height / fps numerator / fps denominator \t\t: 1920 / 1080 / 30 / 1\nSvt[info]: SVT [config]: bit-depth / color format \t\t\t\t\t: 8 / YUV420\nSvt[info]: SVT [config]: preset / tune / pred struct \t\t\t\t\t: 4 / PSNR / random access\nSvt[info]: SVT [config]: gop size / mini-gop size / key-frame type \t\t\t: 161 / 16 / key frame\nSvt[info]: SVT [config]: BRC mode / target bitrate (kbps)\t\t\t\t: VBR / 2500 \nSvt[info]: SVT [config]: AQ mode / Variance Boost \t\t\t\t\t: 2 / 0\nSvt[info]: SVT [config]: sharpness / luminance-based QP bias \t\t\t\t: 0 / 0\nSvt[info]: SVT [config]: QP scale compress strength \t\t\t\t\t: 0\nSvt[info]: -------------------------------------------\nOutput #0, matroska, to 'C:\\Users\\Peter\\Desktop\\stuff\\MIUN\\quantitative_research\\video_compression\\compressed_videos\\BVI-HD\\av1\\2.5\\Diver_1920x1080_30fps_av1.mkv':\n  Metadata:\n    major_brand     : isom\n    minor_version   : 512\n    compatible_brands: isomiso2avc1mp41\n    encoder         : Lavf62.3.100\n  Stream #0:0(und): Video: av1 (AV01 / 0x31305641), yuv420p(tv, progressive), 1920x1080, q=2-31, 2500 kb/s, 30 fps, 1k tbn (default)\n    Metadata:\n      encoder         : Lavc62.11.100 libsvtav1\n      handler_name    : VideoHandler\n      vendor_id       : [0][0][0][0]\n    Side data:\n      cpb: bitrate max/min/avg: 0/0/2500000 buffer size: 2500000 vbv_delay: N/A\nframe=    0 fps=0.0 q=0.0 size=       0KiB time=N/A bitrate=N/A speed=N/A elapsed=0:00:01.04    \nframe=    0 fps=0.0 q=0.0 size=       0KiB time=N/A bitrate=N/A speed=N/A elapsed=0:00:01.59    \nframe=    0 fps=0.0 q=0.0 size=       0KiB time=N/A bitrate=N/A speed=N/A elapsed=0:00:02.12    \nframe=    1 fps=0.4 q=8.0 size=       1KiB time=00:00:00.00 bitrate=N/A speed=   0x elapsed=0:00:02.64    \nframe=    1 fps=0.3 q=8.0 size=       1KiB time=00:00:00.00 bitrate=N/A speed=   0x elapsed=0:00:03.16    \nframe=    2 fps=0.5 q=32.0 size=       1KiB time=00:00:00.03 bitrate= 171.1kbits/s speed=0.00908x elapsed=0:00:03.67    \nframe=    6 fps=1.4 q=28.0 size=       1KiB time=00:00:00.16 bitrate=  34.2kbits/s speed=0.0396x elapsed=0:00:04.20    \nframe=    8 fps=1.7 q=27.0 size=       1KiB time=00:00:00.23 bitrate=  24.4kbits/s speed=0.0493x elapsed=0:00:04.72    \nframe=   12 fps=2.3 q=24.0 size=       1KiB time=00:00:00.33 bitrate=  17.1kbits/s speed=0.0636x elapsed=0:00:05.24    \nframe=   17 fps=2.9 q=14.0 size=       1KiB time=00:00:00.53 bitrate=  10.7kbits/s speed=0.0924x elapsed=0:00:05.77    \nframe=   19 fps=3.0 q=25.0 size=       1KiB time=00:00:00.60 bitrate=   9.5kbits/s speed=0.0953x elapsed=0:00:06.29    \nframe=   22 fps=3.2 q=22.0 size=       1KiB time=00:00:00.70 bitrate=   8.1kbits/s speed=0.103x elapsed=0:00:06.80    \nframe=   23 fps=3.1 q=23.0 size=       1KiB time=00:00:00.73 bitrate=   7.8kbits/s speed= 0.1x elapsed=0:00:07.33    \nframe=   26 fps=3.3 q=21.0 size=       1KiB time=00:00:00.83 bitrate=   6.8kbits/s speed=0.106x elapsed=0:00:07.87    \nframe=   29 fps=3.5 q=24.0 size=       1KiB time=00:00:00.93 bitrate=   6.1kbits/s speed=0.111x elapsed=0:00:08.39    \nframe=   33 fps=3.7 q=11.0 size=       1KiB time=00:00:01.06 bitrate=   5.3kbits/s speed=0.12x elapsed=0:00:08.91    \nframe=   35 fps=3.7 q=22.0 size=       1KiB time=00:00:01.13 bitrate=   5.0kbits/s speed=0.12x elapsed=0:00:09.42    \nframe=   38 fps=3.8 q=19.0 size=       1KiB time=00:00:01.23 bitrate=   4.6kbits/s speed=0.124x elapsed=0:00:09.95    \nframe=   39 fps=3.7 q=22.0 size=       1KiB time=00:00:01.26 bitrate=   4.5kbits/s speed=0.121x elapsed=0:00:10.47    \nframe=   42 fps=3.8 q=20.0 size=       1KiB time=00:00:01.36 bitrate=   4.2kbits/s speed=0.124x elapsed=0:00:10.99    \nframe=   45 fps=3.9 q=24.0 size=       1KiB time=00:00:01.46 bitrate=   3.9kbits/s speed=0.128x elapsed=0:00:11.50    \nframe=   49 fps=4.1 q=10.0 size=       1KiB time=00:00:01.60 bitrate=   3.6kbits/s speed=0.133x elapsed=0:00:12.02    \nframe=   52 fps=4.1 q=24.0 size=       1KiB time=00:00:01.70 bitrate=   3.4kbits/s speed=0.135x elapsed=0:00:12.54    \nframe=   57 fps=4.4 q=12.0 size=       1KiB time=00:00:01.86 bitrate=   3.1kbits/s speed=0.143x elapsed=0:00:13.06    \nframe=   57 fps=4.2 q=12.0 size=       1KiB time=00:00:01.86 bitrate=   3.1kbits/s speed=0.137x elapsed=0:00:13.58    \nframe=   61 fps=4.3 q=25.0 size=       1KiB time=00:00:02.00 bitrate=   2.9kbits/s speed=0.142x elapsed=0:00:14.11    \nframe=   63 fps=4.3 q=28.0 size=       1KiB time=00:00:02.06 bitrate=   2.8kbits/s speed=0.141x elapsed=0:00:14.66    \nframe=   67 fps=4.4 q=27.0 size=       1KiB time=00:00:02.20 bitrate=   2.6kbits/s speed=0.145x elapsed=0:00:15.21    \nframe=   69 fps=4.4 q=27.0 size=       1KiB time=00:00:02.26 bitrate=   2.5kbits/s speed=0.144x elapsed=0:00:15.71    \nframe=   73 fps=4.5 q=13.0 size=       1KiB time=00:00:02.40 bitrate=   2.4kbits/s speed=0.148x elapsed=0:00:16.24    \nframe=   75 fps=4.5 q=27.0 size=       1KiB time=00:00:02.46 bitrate=   2.3kbits/s speed=0.147x elapsed=0:00:16.76    \nframe=   77 fps=4.5 q=26.0 size=       1KiB time=00:00:02.53 bitrate=   2.3kbits/s speed=0.147x elapsed=0:00:17.28    \nframe=   81 fps=4.5 q=4.0 size=       1KiB time=00:00:02.66 bitrate=   2.1kbits/s speed=0.15x elapsed=0:00:17.80    \nframe=   85 fps=4.6 q=27.0 size=       1KiB time=00:00:02.80 bitrate=   2.0kbits/s speed=0.153x elapsed=0:00:18.31    \nframe=   89 fps=4.7 q=14.0 size=       1KiB time=00:00:02.93 bitrate=   1.9kbits/s speed=0.156x elapsed=0:00:18.83    \nframe=   91 fps=4.7 q=29.0 size=       1KiB time=00:00:03.00 bitrate=   1.9kbits/s speed=0.155x elapsed=0:00:19.34    \nframe=   93 fps=4.7 q=27.0 size=       1KiB time=00:00:03.06 bitrate=   1.9kbits/s speed=0.154x elapsed=0:00:19.87    \nframe=   97 fps=4.8 q=4.0 size=       1KiB time=00:00:03.20 bitrate=   1.8kbits/s speed=0.157x elapsed=0:00:20.38    \nframe=  101 fps=4.8 q=26.0 size=       1KiB time=00:00:03.33 bitrate=   1.7kbits/s speed=0.159x elapsed=0:00:20.90    \nframe=  101 fps=4.7 q=26.0 size=       1KiB time=00:00:03.33 bitrate=   1.7kbits/s speed=0.155x elapsed=0:00:21.44    \nframe=  105 fps=4.8 q=14.0 size=       1KiB time=00:00:03.46 bitrate=   1.6kbits/s speed=0.158x elapsed=0:00:21.96    \nframe=  105 fps=4.7 q=14.0 size=       1KiB time=00:00:03.46 bitrate=   1.6kbits/s speed=0.154x elapsed=0:00:22.54    \nframe=  107 fps=4.6 q=27.0 size=       1KiB time=00:00:03.46 bitrate=   1.6kbits/s speed=0.15x elapsed=0:00:23.13    \nframe=  109 fps=4.6 q=26.0 size=       1KiB time=00:00:03.60 bitrate=   1.6kbits/s speed=0.152x elapsed=0:00:23.74    \nframe=  109 fps=4.5 q=26.0 size=       1KiB time=00:00:03.60 bitrate=   1.6kbits/s speed=0.148x elapsed=0:00:24.31    \nframe=  113 fps=4.5 q=9.0 size=       1KiB time=00:00:03.73 bitrate=   1.5kbits/s speed=0.15x elapsed=0:00:24.87    \nframe=  115 fps=4.5 q=26.0 size=       1KiB time=00:00:03.80 bitrate=   1.5kbits/s speed=0.15x elapsed=0:00:25.41    \nframe=  117 fps=4.5 q=26.0 size=       1KiB time=00:00:03.86 bitrate=   1.5kbits/s speed=0.149x elapsed=0:00:25.93    \nframe=  121 fps=4.6 q=12.0 size=       1KiB time=00:00:04.00 bitrate=   1.4kbits/s speed=0.151x elapsed=0:00:26.44    \nframe=  121 fps=4.5 q=12.0 size=       1KiB time=00:00:04.00 bitrate=   1.4kbits/s speed=0.148x elapsed=0:00:26.96    \nframe=  125 fps=4.5 q=29.0 size=       1KiB time=00:00:04.13 bitrate=   1.4kbits/s speed=0.15x elapsed=0:00:27.52    \nframe=  127 fps=4.5 q=30.0 size=       1KiB time=00:00:04.20 bitrate=   1.4kbits/s speed=0.15x elapsed=0:00:28.08    \nframe=  133 fps=4.6 q=30.0 size=       1KiB time=00:00:04.40 bitrate=   1.3kbits/s speed=0.154x elapsed=0:00:28.60    \nframe=  137 fps=4.7 q=21.0 size=       1KiB time=00:00:04.53 bitrate=   1.3kbits/s speed=0.156x elapsed=0:00:29.12    \nframe=  139 fps=4.7 q=30.0 size=       1KiB time=00:00:04.60 bitrate=   1.2kbits/s speed=0.155x elapsed=0:00:29.64    \nframe=  143 fps=4.7 q=30.0 size=       1KiB time=00:00:04.73 bitrate=   1.2kbits/s speed=0.157x elapsed=0:00:30.16    \n[out#0/matroska @ 0000017597a19180] video:1350KiB audio:0KiB subtitle:0KiB other streams:0KiB global headers:0KiB muxing overhead: 0.105311%\nframe=  150 fps=5.0 q=35.0 Lsize=    1352KiB time=00:00:04.96 bitrate=2229.3kbits/s speed=0.164x elapsed=0:00:30.30    \n",
  "seconds": 30.719932079315186,
  "probe_out": {}
}